<svg xmlns="http://www.w3.org/2000/svg" viewBox="0 0 512 512">
  <rect x="6" y="6" width="500" height="500" rx="108" fill="#0b1020" stroke="#334155" stroke-width="12"/>
  <g stroke="#38bdf8" stroke-width="16" stroke-linecap="round" opacity="0.9">
    <line x1="160" y1="140" x2="256" y2="140"/><line x1="256" y1="140" x2="352" y2="140"/>
    <line x1="256" y1="140" x2="256" y2="372"/>
    <line x1="160" y1="372" x2="256" y2="372"/><line x1="256" y1="372" x2="352" y2="372"/>
    <line x1="160" y1="140" x2="256" y2="256"/><line x1="352" y1="140" x2="256" y2="256"/>
    <line x1="160" y1="372" x2="256" y2="256"/><line x1="352" y1="372" x2="256" y2="256"/>
  </g>
  <g fill="#f59e0b"><circle cx="160" cy="140" r="34"/><circle cx="352" cy="140" r="34"/><circle cx="160" cy="372" r="34"/><circle cx="352" cy="372" r="34"/></g>
  <g fill="#fff"><circle cx="256" cy="140" r="30"/><circle cx="256" cy="372" r="30"/><circle cx="256" cy="256" r="44"/></g>
</svg>
